<svg width="28" height="24" viewBox="0 0 28 24" fill="none" xmlns="http://www.w3.org/2000/svg">
<path fill-rule="evenodd" clip-rule="evenodd" d="M14 20C19.5228 20 24 15.5228 24 10C24 4.47715 19.5228 0 14 0L14.178 0.002L23.5322 0C26.2807 2.5295 28 6.13929 28 10.1464C28 17.7975 21.732 24 14 24H0V20H14Z" fill="#0F171E"/>
<path fill-rule="evenodd" clip-rule="evenodd" d="M3 0H14C19.5228 0 24 4.47715 24 10C24 15.5228 19.5228 20 14 20H0V3C0 1.34315 1.34315 0 3 0Z" fill="#FFA724"/>
<path d="M12.2349 9.60011V7.8512C12.8005 7.9908 13.3535 8.25668 13.8059 8.67497L13.8078 8.67238C13.8416 8.69954 13.8826 8.71822 13.9293 8.71822C13.9907 8.71822 14.0434 8.68829 14.0797 8.64418L14.0823 8.6447L14.8135 7.60538L14.8118 7.60452C14.8418 7.56957 14.8617 7.52529 14.8617 7.47547C14.8617 7.41665 14.8355 7.3651 14.7953 7.3286C14.1171 6.69702 13.2512 6.31783 12.2349 6.20383V5.19946C12.2349 5.08926 12.1462 5 12.0369 5H11.2515C11.1422 5 11.0537 5.08926 11.0537 5.19946V6.1784C9.3569 6.35571 8.35154 7.44571 8.35154 8.72566C8.35154 10.4491 9.75922 10.9434 11.0537 11.2603V13.2244C10.2224 13.0742 9.53928 12.6399 9.07451 12.1536C9.07125 12.15 9.06782 12.1469 9.06421 12.1436L9.05529 12.1347L9.05392 12.1366C9.01951 12.1069 8.97588 12.0902 8.93056 12.0894C8.89527 12.0897 8.86072 12.0997 8.83057 12.1182C8.80043 12.1367 8.77582 12.1631 8.75934 12.1946L8.75694 12.1943L8.04924 13.2536L8.0501 13.2554C8.01829 13.2909 8.00047 13.3369 8 13.3848C8 13.4482 8.03122 13.5022 8.07686 13.5387L8.07497 13.5415C8.76621 14.2385 9.734 14.7453 11.0537 14.8595V15.8005C11.0537 15.9107 11.1422 16 11.2515 16H12.0369C12.1462 16 12.2347 15.9106 12.2347 15.8005L12.2349 14.8593C14.0825 14.669 15 13.5795 15 12.1726C15 10.4367 13.542 9.92948 12.2349 9.60011ZM11.0535 9.30845C10.5383 9.14394 10.1862 8.95366 10.1862 8.58605C10.1862 8.15531 10.5006 7.8512 11.0535 7.77508V9.30845ZM12.2349 13.2498V11.5518C12.788 11.7291 13.1776 11.9322 13.1776 12.3501C13.1776 12.7558 12.8759 13.123 12.2349 13.2498Z" fill="#0F171E"/>
</svg>
