<svg width="51" height="24" viewBox="0 0 51 24" fill="none" xmlns="http://www.w3.org/2000/svg">
<path fill-rule="evenodd" clip-rule="evenodd" d="M37 20C42.5228 20 47 15.5228 47 10C47 4.47715 42.5228 0 37 0L37.103 0.001L46.5322 0C49.2807 2.5295 51 6.13929 51 10.1464C51 17.7975 44.732 24 37 24H0V20H37Z" fill="#0F171E"/>
<path fill-rule="evenodd" clip-rule="evenodd" d="M3 0H37C42.5228 0 47 4.47715 47 10C47 15.5228 42.5228 20 37 20H0V3C0 1.34315 1.34315 0 3 0Z" fill="#00E15A"/>
<path d="M6.48047 10.7832C6.48047 9.79883 6.71094 9.01367 7.17188 8.42773C7.63672 7.83789 8.25195 7.54297 9.01758 7.54297C9.74023 7.54297 10.3086 7.79492 10.7227 8.29883L10.7871 7.66016H12.0703V13.8066C12.0703 14.6387 11.8105 15.2949 11.291 15.7754C10.7754 16.2559 10.0781 16.4961 9.19922 16.4961C8.73438 16.4961 8.2793 16.3984 7.83398 16.2031C7.39258 16.0117 7.05664 15.7598 6.82617 15.4473L7.5 14.5918C7.9375 15.1113 8.47656 15.3711 9.11719 15.3711C9.58984 15.3711 9.96289 15.2422 10.2363 14.9844C10.5098 14.7305 10.6465 14.3555 10.6465 13.8594V13.4316C10.2363 13.8887 9.68945 14.1172 9.00586 14.1172C8.26367 14.1172 7.65625 13.8223 7.18359 13.2324C6.71484 12.6426 6.48047 11.8262 6.48047 10.7832ZM7.89844 10.9062C7.89844 11.543 8.02734 12.0449 8.28516 12.4121C8.54688 12.7754 8.9082 12.957 9.36914 12.957C9.94336 12.957 10.3691 12.7109 10.6465 12.2188V9.42969C10.377 8.94922 9.95508 8.70898 9.38086 8.70898C8.91211 8.70898 8.54688 8.89453 8.28516 9.26562C8.02734 9.63672 7.89844 10.1836 7.89844 10.9062ZM16.8574 8.96094C16.6699 8.92969 16.4766 8.91406 16.2773 8.91406C15.625 8.91406 15.1855 9.16406 14.959 9.66406V14H13.5352V7.66016H14.8945L14.9297 8.36914C15.2734 7.81836 15.75 7.54297 16.3594 7.54297C16.5625 7.54297 16.7305 7.57031 16.8633 7.625L16.8574 8.96094ZM21.3691 14C21.3066 13.8789 21.252 13.6816 21.2051 13.4082C20.752 13.8809 20.1973 14.1172 19.541 14.1172C18.9043 14.1172 18.3848 13.9355 17.9824 13.5723C17.5801 13.209 17.3789 12.7598 17.3789 12.2246C17.3789 11.5488 17.6289 11.0312 18.1289 10.6719C18.6328 10.3086 19.3516 10.127 20.2852 10.127H21.1582V9.71094C21.1582 9.38281 21.0664 9.12109 20.8828 8.92578C20.6992 8.72656 20.4199 8.62695 20.0449 8.62695C19.7207 8.62695 19.4551 8.70898 19.248 8.87305C19.041 9.0332 18.9375 9.23828 18.9375 9.48828H17.5137C17.5137 9.14062 17.6289 8.81641 17.8594 8.51562C18.0898 8.21094 18.4023 7.97266 18.7969 7.80078C19.1953 7.62891 19.6387 7.54297 20.127 7.54297C20.8691 7.54297 21.4609 7.73047 21.9023 8.10547C22.3438 8.47656 22.5703 9 22.582 9.67578V12.5352C22.582 13.1055 22.6621 13.5605 22.8223 13.9004V14H21.3691ZM19.8047 12.9746C20.0859 12.9746 20.3496 12.9062 20.5957 12.7695C20.8457 12.6328 21.0332 12.4492 21.1582 12.2188V11.0234H20.3906C19.8633 11.0234 19.4668 11.1152 19.2012 11.2988C18.9355 11.4824 18.8027 11.7422 18.8027 12.0781C18.8027 12.3516 18.8926 12.5703 19.0723 12.7344C19.2559 12.8945 19.5 12.9746 19.8047 12.9746ZM25.8574 6.11914V7.66016H26.9766V8.71484H25.8574V12.2539C25.8574 12.4961 25.9043 12.6719 25.998 12.7812C26.0957 12.8867 26.2676 12.9395 26.5137 12.9395C26.6777 12.9395 26.8438 12.9199 27.0117 12.8809V13.9824C26.6875 14.0723 26.375 14.1172 26.0742 14.1172C24.9805 14.1172 24.4336 13.5137 24.4336 12.3066V8.71484H23.3906V7.66016H24.4336V6.11914H25.8574ZM31.9102 13.3789C31.4922 13.8711 30.8984 14.1172 30.1289 14.1172C29.4414 14.1172 28.9199 13.916 28.5645 13.5137C28.2129 13.1113 28.0371 12.5293 28.0371 11.7676V7.66016H29.4609V11.75C29.4609 12.5547 29.7949 12.957 30.4629 12.957C31.1543 12.957 31.6211 12.709 31.8633 12.2129V7.66016H33.2871V14H31.9453L31.9102 13.3789ZM36.252 14H34.8281V7.66016H36.252V14ZM34.7402 6.01367C34.7402 5.79492 34.8086 5.61328 34.9453 5.46875C35.0859 5.32422 35.2852 5.25195 35.543 5.25195C35.8008 5.25195 36 5.32422 36.1406 5.46875C36.2812 5.61328 36.3516 5.79492 36.3516 6.01367C36.3516 6.22852 36.2812 6.4082 36.1406 6.55273C36 6.69336 35.8008 6.76367 35.543 6.76367C35.2852 6.76367 35.0859 6.69336 34.9453 6.55273C34.8086 6.4082 34.7402 6.22852 34.7402 6.01367ZM39.5918 6.11914V7.66016H40.7109V8.71484H39.5918V12.2539C39.5918 12.4961 39.6387 12.6719 39.7324 12.7812C39.8301 12.8867 40.002 12.9395 40.248 12.9395C40.4121 12.9395 40.5781 12.9199 40.7461 12.8809V13.9824C40.4219 14.0723 40.1094 14.1172 39.8086 14.1172C38.7148 14.1172 38.168 13.5137 38.168 12.3066V8.71484H37.125V7.66016H38.168V6.11914H39.5918Z" fill="#1B2224"/>
</svg>
